<svg xmlns="http://www.w3.org/2000/svg" xmlns:xlink="http://www.w3.org/1999/xlink" version="1.1" x="0px" y="0px"
     viewBox="0 0 24 30" enable-background="new 0 0 24 24" xml:space="preserve"><g><g>
    <path stroke="white" stroke-width="0.25"
            d="M23.063,5.036H0.937c-0.506,0-0.918,0.412-0.918,0.918v12.092c0,0.506,0.412,0.918,0.918,0.918h22.126    c0.506,0,0.918-0.412,0.918-0.918V5.954C23.981,5.448,23.569,5.036,23.063,5.036z M21.516,18.163H2.484    c-0.162-0.82-0.816-1.449-1.665-1.602V7.44c0.849-0.153,1.502-0.782,1.665-1.603h19.031c0.162,0.821,0.816,1.45,1.665,1.603v9.122    C22.332,16.714,21.678,17.343,21.516,18.163z M23.18,5.954v0.65c-0.398-0.116-0.695-0.392-0.824-0.767h0.706    C23.127,5.837,23.18,5.89,23.18,5.954z M0.937,5.837h0.706C1.515,6.212,1.217,6.487,0.82,6.604v-0.65    C0.82,5.89,0.873,5.837,0.937,5.837z M0.82,18.046v-0.649c0.398,0.116,0.695,0.391,0.824,0.766H0.937    C0.873,18.163,0.82,18.11,0.82,18.046z M23.063,18.163h-0.706c0.128-0.375,0.426-0.65,0.824-0.766v0.649    C23.18,18.11,23.127,18.163,23.063,18.163z"/></g>
    <path stroke="white" stroke-width="0.25"
          d="M12.764,10.462V9.381h-1.265V8.722h1.265V8.23h1.239v0.492h0.545v0.659h-0.545v5.168h-1.187v-0.651       c-0.176,0.281-0.375,0.485-0.597,0.611c-0.223,0.126-0.501,0.189-0.835,0.189c-0.545,0-1.003-0.221-1.375-0.664       c-0.372-0.442-0.558-1.009-0.558-1.7c0-0.803,0.183-1.433,0.549-1.89c0.366-0.457,0.857-0.686,1.472-0.686       c0.287,0,0.54,0.063,0.76,0.189C12.453,10.074,12.63,10.246,12.764,10.462z M10.471,15.12h3.058v0.651h-3.058L10.471,15.12       L10.471,15.12z M12.8,12.281c0-0.574-0.144-0.984-0.432-1.23c-0.176-0.146-0.386-0.22-0.627-0.22       c-0.359,0-0.622,0.135-0.79,0.404c-0.168,0.27-0.252,0.604-0.252,1.002c0,0.434,0.085,0.779,0.256,1.037       c0.171,0.258,0.432,0.387,0.785,0.387c0.347,0,0.61-0.128,0.79-0.382C12.71,13.024,12.8,12.692,12.8,12.281z"/></g></svg>